<mxfile host="app.diagrams.net" modified="2021-12-30T14:19:25.980Z" agent="5.0 (Windows NT 10.0; Win64; x64) AppleWebKit/537.36 (KHTML, like Gecko) Chrome/96.0.4664.110 Safari/537.36" etag="l-8_JJGfFtINzF7AJHWN" version="16.1.2" type="github">
  <diagram id="RNjr4j0GBJ4JUxg0UdfD" name="Page-1">
    <mxGraphModel dx="2012" dy="628" grid="1" gridSize="10" guides="1" tooltips="1" connect="1" arrows="1" fold="1" page="1" pageScale="1" pageWidth="827" pageHeight="1169" math="0" shadow="0">
      <root>
        <mxCell id="0" />
        <mxCell id="1" parent="0" />
        <mxCell id="Ub8pnknUyiXxGgldzIyQ-1" value="拟稿" style="shape=umlLifeline;perimeter=lifelinePerimeter;whiteSpace=wrap;html=1;container=1;collapsible=0;recursiveResize=0;outlineConnect=0;" parent="1" vertex="1">
          <mxGeometry x="30" y="90" width="115" height="1090" as="geometry" />
        </mxCell>
        <mxCell id="Ub8pnknUyiXxGgldzIyQ-6" value="" style="html=1;points=[];perimeter=orthogonalPerimeter;fillColor=#f8cecc;strokeColor=#b85450;" parent="Ub8pnknUyiXxGgldzIyQ-1" vertex="1">
          <mxGeometry x="52.5" y="70" width="10" height="80" as="geometry" />
        </mxCell>
        <mxCell id="Ub8pnknUyiXxGgldzIyQ-24" value="" style="html=1;points=[];perimeter=orthogonalPerimeter;fillColor=#f8cecc;strokeColor=#b85450;" parent="Ub8pnknUyiXxGgldzIyQ-1" vertex="1">
          <mxGeometry x="52.5" y="210" width="10" height="70" as="geometry" />
        </mxCell>
        <mxCell id="4UHlv2itUR0P1ygIJtA1-65" style="edgeStyle=orthogonalEdgeStyle;rounded=0;orthogonalLoop=1;jettySize=auto;html=1;entryX=0.05;entryY=0.629;entryDx=0;entryDy=0;entryPerimeter=0;" edge="1" parent="Ub8pnknUyiXxGgldzIyQ-1" target="Ub8pnknUyiXxGgldzIyQ-6">
          <mxGeometry relative="1" as="geometry">
            <mxPoint x="52.5" y="660" as="sourcePoint" />
            <mxPoint x="50" y="120" as="targetPoint" />
            <Array as="points">
              <mxPoint x="-40" y="660" />
              <mxPoint x="-40" y="120" />
            </Array>
          </mxGeometry>
        </mxCell>
        <mxCell id="4UHlv2itUR0P1ygIJtA1-66" value="new 出征审查" style="edgeLabel;html=1;align=center;verticalAlign=middle;resizable=0;points=[];fontStyle=3" vertex="1" connectable="0" parent="4UHlv2itUR0P1ygIJtA1-65">
          <mxGeometry x="-0.5711" y="2" relative="1" as="geometry">
            <mxPoint y="-287" as="offset" />
          </mxGeometry>
        </mxCell>
        <mxCell id="4UHlv2itUR0P1ygIJtA1-23" value="" style="html=1;points=[];perimeter=orthogonalPerimeter;fillColor=#f8cecc;strokeColor=#b85450;" vertex="1" parent="Ub8pnknUyiXxGgldzIyQ-1">
          <mxGeometry x="52.5" y="950" width="10" height="80" as="geometry" />
        </mxCell>
        <mxCell id="4UHlv2itUR0P1ygIJtA1-59" value="通过状态" style="text;html=1;align=center;verticalAlign=middle;resizable=0;points=[];autosize=1;strokeColor=none;fillColor=none;" vertex="1" parent="Ub8pnknUyiXxGgldzIyQ-1">
          <mxGeometry x="55" y="130" width="60" height="20" as="geometry" />
        </mxCell>
        <mxCell id="Ub8pnknUyiXxGgldzIyQ-2" value="核稿" style="shape=umlLifeline;perimeter=lifelinePerimeter;whiteSpace=wrap;html=1;container=1;collapsible=0;recursiveResize=0;outlineConnect=0;" parent="1" vertex="1">
          <mxGeometry x="210" y="90" width="150" height="1080" as="geometry" />
        </mxCell>
        <mxCell id="Ub8pnknUyiXxGgldzIyQ-7" value="" style="html=1;points=[];perimeter=orthogonalPerimeter;strokeColor=#b85450;fillColor=#f8cecc;" parent="Ub8pnknUyiXxGgldzIyQ-2" vertex="1">
          <mxGeometry x="70" y="70" width="10" height="80" as="geometry" />
        </mxCell>
        <mxCell id="Ub8pnknUyiXxGgldzIyQ-23" value="" style="html=1;points=[];perimeter=orthogonalPerimeter;fillColor=#f8cecc;strokeColor=#b85450;" parent="Ub8pnknUyiXxGgldzIyQ-2" vertex="1">
          <mxGeometry x="70" y="215" width="10" height="60" as="geometry" />
        </mxCell>
        <mxCell id="4UHlv2itUR0P1ygIJtA1-58" value="通过状态" style="text;html=1;align=center;verticalAlign=middle;resizable=0;points=[];autosize=1;strokeColor=none;fillColor=none;" vertex="1" parent="Ub8pnknUyiXxGgldzIyQ-2">
          <mxGeometry x="55" y="130" width="60" height="20" as="geometry" />
        </mxCell>
        <mxCell id="4UHlv2itUR0P1ygIJtA1-48" value="驳回状态" style="text;html=1;align=center;verticalAlign=middle;resizable=0;points=[];autosize=1;strokeColor=none;fillColor=none;" vertex="1" parent="Ub8pnknUyiXxGgldzIyQ-2">
          <mxGeometry x="80" y="330" width="60" height="20" as="geometry" />
        </mxCell>
        <mxCell id="Ub8pnknUyiXxGgldzIyQ-3" value="签发稿&lt;br&gt;（展示记录）" style="shape=umlLifeline;perimeter=lifelinePerimeter;whiteSpace=wrap;html=1;container=1;collapsible=0;recursiveResize=0;outlineConnect=0;" parent="1" vertex="1">
          <mxGeometry x="380" y="90" width="150" height="1080" as="geometry" />
        </mxCell>
        <mxCell id="4UHlv2itUR0P1ygIJtA1-41" style="edgeStyle=orthogonalEdgeStyle;rounded=0;orthogonalLoop=1;jettySize=auto;html=1;entryX=0.083;entryY=0.577;entryDx=0;entryDy=0;entryPerimeter=0;" edge="1" parent="Ub8pnknUyiXxGgldzIyQ-3" source="Ub8pnknUyiXxGgldzIyQ-12" target="4UHlv2itUR0P1ygIJtA1-36">
          <mxGeometry relative="1" as="geometry">
            <Array as="points">
              <mxPoint x="25" y="110" />
              <mxPoint x="25" y="206" />
            </Array>
          </mxGeometry>
        </mxCell>
        <mxCell id="Ub8pnknUyiXxGgldzIyQ-12" value="" style="html=1;points=[];perimeter=orthogonalPerimeter;fillColor=#f8cecc;strokeColor=#b85450;" parent="Ub8pnknUyiXxGgldzIyQ-3" vertex="1">
          <mxGeometry x="70" y="70" width="10" height="80" as="geometry" />
        </mxCell>
        <mxCell id="Ub8pnknUyiXxGgldzIyQ-26" value="" style="html=1;points=[];perimeter=orthogonalPerimeter;fillColor=#ffe6cc;strokeColor=#d79b00;" parent="Ub8pnknUyiXxGgldzIyQ-3" vertex="1">
          <mxGeometry x="70" y="330" width="10" height="80" as="geometry" />
        </mxCell>
        <mxCell id="4UHlv2itUR0P1ygIJtA1-5" value="" style="html=1;points=[];perimeter=orthogonalPerimeter;fillColor=#ffe6cc;strokeColor=#d79b00;" vertex="1" parent="Ub8pnknUyiXxGgldzIyQ-3">
          <mxGeometry x="70" y="831" width="10" height="80" as="geometry" />
        </mxCell>
        <mxCell id="4UHlv2itUR0P1ygIJtA1-26" value="" style="html=1;points=[];perimeter=orthogonalPerimeter;fillColor=#e1d5e7;strokeColor=#9673a6;" vertex="1" parent="Ub8pnknUyiXxGgldzIyQ-3">
          <mxGeometry x="70" y="950" width="10" height="80" as="geometry" />
        </mxCell>
        <mxCell id="4UHlv2itUR0P1ygIJtA1-36" value="" style="html=1;points=[];perimeter=orthogonalPerimeter;fillColor=#ffe6cc;strokeColor=#d79b00;" vertex="1" parent="Ub8pnknUyiXxGgldzIyQ-3">
          <mxGeometry x="70" y="160" width="10" height="80" as="geometry" />
        </mxCell>
        <mxCell id="4UHlv2itUR0P1ygIJtA1-57" value="通过状态" style="text;html=1;align=center;verticalAlign=middle;resizable=0;points=[];autosize=1;strokeColor=none;fillColor=none;" vertex="1" parent="Ub8pnknUyiXxGgldzIyQ-3">
          <mxGeometry x="60" y="220" width="60" height="20" as="geometry" />
        </mxCell>
        <mxCell id="4UHlv2itUR0P1ygIJtA1-49" value="驳回状态" style="text;html=1;align=center;verticalAlign=middle;resizable=0;points=[];autosize=1;strokeColor=none;fillColor=none;" vertex="1" parent="Ub8pnknUyiXxGgldzIyQ-3">
          <mxGeometry x="90" y="460" width="60" height="20" as="geometry" />
        </mxCell>
        <mxCell id="4UHlv2itUR0P1ygIJtA1-60" value="通过状态" style="text;html=1;align=center;verticalAlign=middle;resizable=0;points=[];autosize=1;strokeColor=none;fillColor=none;" vertex="1" parent="Ub8pnknUyiXxGgldzIyQ-3">
          <mxGeometry x="-5" y="330" width="60" height="20" as="geometry" />
        </mxCell>
        <mxCell id="4UHlv2itUR0P1ygIJtA1-63" value="卷宗状态到驳回&lt;br&gt;0-&amp;gt;1" style="text;html=1;align=center;verticalAlign=middle;resizable=0;points=[];autosize=1;strokeColor=none;fillColor=none;" vertex="1" parent="Ub8pnknUyiXxGgldzIyQ-3">
          <mxGeometry x="-40" y="620" width="100" height="30" as="geometry" />
        </mxCell>
        <mxCell id="4UHlv2itUR0P1ygIJtA1-73" value="撤回状态" style="text;html=1;align=center;verticalAlign=middle;resizable=0;points=[];autosize=1;strokeColor=none;fillColor=none;" vertex="1" parent="Ub8pnknUyiXxGgldzIyQ-3">
          <mxGeometry x="10" y="891" width="60" height="20" as="geometry" />
        </mxCell>
        <mxCell id="Ub8pnknUyiXxGgldzIyQ-4" value="审批&lt;br&gt;（展示记录）（启动审批工作流）" style="shape=umlLifeline;perimeter=lifelinePerimeter;whiteSpace=wrap;html=1;container=1;collapsible=0;recursiveResize=0;outlineConnect=0;" parent="1" vertex="1">
          <mxGeometry x="560" y="90" width="125" height="1110" as="geometry" />
        </mxCell>
        <mxCell id="Ub8pnknUyiXxGgldzIyQ-27" value="" style="html=1;points=[];perimeter=orthogonalPerimeter;fillColor=#ffe6cc;strokeColor=#d79b00;" parent="Ub8pnknUyiXxGgldzIyQ-4" vertex="1">
          <mxGeometry x="55" y="460" width="10" height="80" as="geometry" />
        </mxCell>
        <mxCell id="4UHlv2itUR0P1ygIJtA1-6" value="" style="html=1;points=[];perimeter=orthogonalPerimeter;fillColor=#ffe6cc;strokeColor=#d79b00;" vertex="1" parent="Ub8pnknUyiXxGgldzIyQ-4">
          <mxGeometry x="55" y="831" width="10" height="80" as="geometry" />
        </mxCell>
        <mxCell id="4UHlv2itUR0P1ygIJtA1-31" value="" style="html=1;points=[];perimeter=orthogonalPerimeter;fillColor=#e1d5e7;strokeColor=#9673a6;" vertex="1" parent="Ub8pnknUyiXxGgldzIyQ-4">
          <mxGeometry x="55" y="950" width="10" height="80" as="geometry" />
        </mxCell>
        <mxCell id="4UHlv2itUR0P1ygIJtA1-38" value="" style="html=1;points=[];perimeter=orthogonalPerimeter;fillColor=#ffe6cc;strokeColor=#d79b00;" vertex="1" parent="Ub8pnknUyiXxGgldzIyQ-4">
          <mxGeometry x="55" y="170" width="10" height="80" as="geometry" />
        </mxCell>
        <mxCell id="4UHlv2itUR0P1ygIJtA1-53" value="通过状态" style="text;html=1;align=center;verticalAlign=middle;resizable=0;points=[];autosize=1;strokeColor=none;fillColor=none;" vertex="1" parent="Ub8pnknUyiXxGgldzIyQ-4">
          <mxGeometry x="60" y="230" width="60" height="20" as="geometry" />
        </mxCell>
        <mxCell id="4UHlv2itUR0P1ygIJtA1-55" value="通过状态" style="text;html=1;align=center;verticalAlign=middle;resizable=0;points=[];autosize=1;strokeColor=none;fillColor=none;" vertex="1" parent="Ub8pnknUyiXxGgldzIyQ-4">
          <mxGeometry x="-10" y="460" width="60" height="20" as="geometry" />
        </mxCell>
        <mxCell id="Ub8pnknUyiXxGgldzIyQ-5" value="制证" style="shape=umlLifeline;perimeter=lifelinePerimeter;whiteSpace=wrap;html=1;container=1;collapsible=0;recursiveResize=0;outlineConnect=0;" parent="1" vertex="1">
          <mxGeometry x="720" y="90" width="100" height="1080" as="geometry" />
        </mxCell>
        <mxCell id="Ub8pnknUyiXxGgldzIyQ-36" value="" style="html=1;points=[];perimeter=orthogonalPerimeter;" parent="Ub8pnknUyiXxGgldzIyQ-5" vertex="1">
          <mxGeometry x="45" y="620" width="10" height="80" as="geometry" />
        </mxCell>
        <mxCell id="4UHlv2itUR0P1ygIJtA1-44" value="" style="html=1;points=[];perimeter=orthogonalPerimeter;" vertex="1" parent="Ub8pnknUyiXxGgldzIyQ-5">
          <mxGeometry x="45" y="169" width="10" height="80" as="geometry" />
        </mxCell>
        <mxCell id="Ub8pnknUyiXxGgldzIyQ-13" style="edgeStyle=orthogonalEdgeStyle;rounded=0;orthogonalLoop=1;jettySize=auto;html=1;" parent="1" source="Ub8pnknUyiXxGgldzIyQ-7" target="Ub8pnknUyiXxGgldzIyQ-12" edge="1">
          <mxGeometry relative="1" as="geometry" />
        </mxCell>
        <mxCell id="Ub8pnknUyiXxGgldzIyQ-14" value="一条数据 &lt;br&gt;type =2" style="whiteSpace=wrap;html=1;" parent="1" vertex="1">
          <mxGeometry x="140" y="160" width="110" height="30" as="geometry" />
        </mxCell>
        <mxCell id="Ub8pnknUyiXxGgldzIyQ-15" value="一条数据 &lt;br&gt;type =3" style="whiteSpace=wrap;html=1;" parent="1" vertex="1">
          <mxGeometry x="310" y="250" width="110" height="30" as="geometry" />
        </mxCell>
        <mxCell id="Ub8pnknUyiXxGgldzIyQ-21" style="edgeStyle=orthogonalEdgeStyle;rounded=0;orthogonalLoop=1;jettySize=auto;html=1;" parent="1" source="Ub8pnknUyiXxGgldzIyQ-6" target="Ub8pnknUyiXxGgldzIyQ-7" edge="1">
          <mxGeometry relative="1" as="geometry" />
        </mxCell>
        <mxCell id="Ub8pnknUyiXxGgldzIyQ-25" style="edgeStyle=orthogonalEdgeStyle;rounded=0;orthogonalLoop=1;jettySize=auto;html=1;" parent="1" source="Ub8pnknUyiXxGgldzIyQ-23" target="Ub8pnknUyiXxGgldzIyQ-24" edge="1">
          <mxGeometry relative="1" as="geometry" />
        </mxCell>
        <mxCell id="Ub8pnknUyiXxGgldzIyQ-34" style="edgeStyle=orthogonalEdgeStyle;rounded=0;orthogonalLoop=1;jettySize=auto;html=1;" parent="1" source="Ub8pnknUyiXxGgldzIyQ-26" edge="1">
          <mxGeometry relative="1" as="geometry">
            <mxPoint x="-10" y="460" as="targetPoint" />
          </mxGeometry>
        </mxCell>
        <mxCell id="4UHlv2itUR0P1ygIJtA1-20" value="设置卷宗驳回状态" style="edgeLabel;html=1;align=center;verticalAlign=middle;resizable=0;points=[];" vertex="1" connectable="0" parent="Ub8pnknUyiXxGgldzIyQ-34">
          <mxGeometry x="-0.2745" y="-1" relative="1" as="geometry">
            <mxPoint y="1" as="offset" />
          </mxGeometry>
        </mxCell>
        <mxCell id="Ub8pnknUyiXxGgldzIyQ-35" style="edgeStyle=orthogonalEdgeStyle;rounded=0;orthogonalLoop=1;jettySize=auto;html=1;" parent="1" source="Ub8pnknUyiXxGgldzIyQ-27" edge="1">
          <mxGeometry relative="1" as="geometry">
            <mxPoint x="-10" y="590" as="targetPoint" />
          </mxGeometry>
        </mxCell>
        <mxCell id="4UHlv2itUR0P1ygIJtA1-21" value="&lt;span style=&quot;color: rgba(0 , 0 , 0 , 0) ; font-family: monospace ; font-size: 0px ; background-color: rgb(248 , 249 , 250)&quot;&gt;%3CmxGraphModel%3E%3Croot%3E%3CmxCell%20id%3D%220%22%2F%3E%3CmxCell%20id%3D%221%22%20parent%3D%220%22%2F%3E%3CmxCell%20id%3D%222%22%20value%3D%22%E8%AE%BE%E7%BD%AE%E5%8D%B7%E5%AE%97%E9%A9%B3%E5%9B%9E%E7%8A%B6%E6%80%81%22%20style%3D%22edgeLabel%3Bhtml%3D1%3Balign%3Dcenter%3BverticalAlign%3Dmiddle%3Bresizable%3D0%3Bpoints%3D%5B%5D%3B%22%20vertex%3D%221%22%20connectable%3D%220%22%20parent%3D%221%22%3E%3CmxGeometry%20x%3D%22301.66666666666674%22%20y%3D%22400%22%20as%3D%22geometry%22%2F%3E%3C%2FmxCell%3E%3C%2Froot%3E%3C%2FmxGraphModel%3E&lt;/span&gt;&lt;span style=&quot;color: rgba(0 , 0 , 0 , 0) ; font-family: monospace ; font-size: 0px ; background-color: rgb(248 , 249 , 250)&quot;&gt;%3CmxGraphModel%3E%3Croot%3E%3CmxCell%20id%3D%220%22%2F%3E%3CmxCell%20id%3D%221%22%20parent%3D%220%22%2F%3E%3CmxCell%20id%3D%222%22%20value%3D%22%E8%AE%BE%E7%BD%AE%E5%8D%B7%E5%AE%97%E9%A9%B3%E5%9B%9E%E7%8A%B6%E6%80%81%22%20style%3D%22edgeLabel%3Bhtml%3D1%3Balign%3Dcenter%3BverticalAlign%3Dmiddle%3Bresizable%3D0%3Bpoints%3D%5B%5D%3B%22%20vertex%3D%221%22%20connectable%3D%220%22%20parent%3D%221%22%3E%3CmxGeometry%20x%3D%22301.66666666666674%22%20y%3D%22400%22%20as%3D%22geometry%22%2F%3E%3C%2FmxCell%3E%3C%2Froot%3E%3C%2FmxGraphModel%3E&lt;/span&gt;" style="edgeLabel;html=1;align=center;verticalAlign=middle;resizable=0;points=[];" vertex="1" connectable="0" parent="Ub8pnknUyiXxGgldzIyQ-35">
          <mxGeometry x="-0.6314" y="-2" relative="1" as="geometry">
            <mxPoint as="offset" />
          </mxGeometry>
        </mxCell>
        <mxCell id="4UHlv2itUR0P1ygIJtA1-22" value="设置卷宗驳回状态" style="edgeLabel;html=1;align=center;verticalAlign=middle;resizable=0;points=[];" vertex="1" connectable="0" parent="Ub8pnknUyiXxGgldzIyQ-35">
          <mxGeometry x="-0.6603" y="2" relative="1" as="geometry">
            <mxPoint as="offset" />
          </mxGeometry>
        </mxCell>
        <mxCell id="Ub8pnknUyiXxGgldzIyQ-38" style="edgeStyle=orthogonalEdgeStyle;rounded=0;orthogonalLoop=1;jettySize=auto;html=1;" parent="1" source="Ub8pnknUyiXxGgldzIyQ-36" edge="1">
          <mxGeometry relative="1" as="geometry">
            <mxPoint x="50" y="750" as="targetPoint" />
          </mxGeometry>
        </mxCell>
        <mxCell id="4UHlv2itUR0P1ygIJtA1-19" value="&lt;b&gt;制证驳回&lt;/b&gt;" style="edgeLabel;html=1;align=center;verticalAlign=middle;resizable=0;points=[];" vertex="1" connectable="0" parent="Ub8pnknUyiXxGgldzIyQ-38">
          <mxGeometry x="0.0846" y="1" relative="1" as="geometry">
            <mxPoint as="offset" />
          </mxGeometry>
        </mxCell>
        <mxCell id="Ub8pnknUyiXxGgldzIyQ-10" value="一条数据 &lt;br&gt;type =1" style="whiteSpace=wrap;html=1;" parent="1" vertex="1">
          <mxGeometry x="-40" y="160" width="110" height="30" as="geometry" />
        </mxCell>
        <mxCell id="4UHlv2itUR0P1ygIJtA1-2" value="数据合并，兼并拟稿和核稿状态" style="whiteSpace=wrap;html=1;" vertex="1" parent="1">
          <mxGeometry x="1190" y="480" width="120" height="60" as="geometry" />
        </mxCell>
        <mxCell id="4UHlv2itUR0P1ygIJtA1-3" value="复制并新增一条&lt;br&gt;签发稿的状态" style="whiteSpace=wrap;html=1;" vertex="1" parent="1">
          <mxGeometry x="460" y="400" width="125" height="50" as="geometry" />
        </mxCell>
        <mxCell id="4UHlv2itUR0P1ygIJtA1-4" value="驳回 保留核稿信息&amp;nbsp;&lt;br&gt;修改驳回字段" style="whiteSpace=wrap;html=1;" vertex="1" parent="1">
          <mxGeometry x="110" y="360" width="120" height="50" as="geometry" />
        </mxCell>
        <mxCell id="4UHlv2itUR0P1ygIJtA1-7" style="edgeStyle=orthogonalEdgeStyle;rounded=0;orthogonalLoop=1;jettySize=auto;html=1;entryX=0.986;entryY=0.504;entryDx=0;entryDy=0;entryPerimeter=0;startArrow=none;" edge="1" parent="1" source="4UHlv2itUR0P1ygIJtA1-8" target="4UHlv2itUR0P1ygIJtA1-5">
          <mxGeometry relative="1" as="geometry" />
        </mxCell>
        <mxCell id="4UHlv2itUR0P1ygIJtA1-8" value="撤回" style="whiteSpace=wrap;html=1;" vertex="1" parent="1">
          <mxGeometry x="492.5" y="943.5" width="85" height="35" as="geometry" />
        </mxCell>
        <mxCell id="4UHlv2itUR0P1ygIJtA1-9" value="" style="edgeStyle=orthogonalEdgeStyle;rounded=0;orthogonalLoop=1;jettySize=auto;html=1;entryX=0.986;entryY=0.504;entryDx=0;entryDy=0;entryPerimeter=0;endArrow=none;" edge="1" parent="1" source="4UHlv2itUR0P1ygIJtA1-6" target="4UHlv2itUR0P1ygIJtA1-8">
          <mxGeometry relative="1" as="geometry">
            <mxPoint x="605" y="971" as="sourcePoint" />
            <mxPoint x="434.8599999999999" y="971.3199999999999" as="targetPoint" />
          </mxGeometry>
        </mxCell>
        <mxCell id="4UHlv2itUR0P1ygIJtA1-32" style="edgeStyle=orthogonalEdgeStyle;rounded=0;orthogonalLoop=1;jettySize=auto;html=1;" edge="1" parent="1" source="4UHlv2itUR0P1ygIJtA1-26" target="4UHlv2itUR0P1ygIJtA1-31">
          <mxGeometry relative="1" as="geometry" />
        </mxCell>
        <mxCell id="4UHlv2itUR0P1ygIJtA1-34" style="edgeStyle=orthogonalEdgeStyle;rounded=0;orthogonalLoop=1;jettySize=auto;html=1;" edge="1" parent="1" source="4UHlv2itUR0P1ygIJtA1-23" target="4UHlv2itUR0P1ygIJtA1-26">
          <mxGeometry relative="1" as="geometry" />
        </mxCell>
        <mxCell id="4UHlv2itUR0P1ygIJtA1-39" style="edgeStyle=orthogonalEdgeStyle;rounded=0;orthogonalLoop=1;jettySize=auto;html=1;" edge="1" parent="1" source="4UHlv2itUR0P1ygIJtA1-36" target="4UHlv2itUR0P1ygIJtA1-38">
          <mxGeometry relative="1" as="geometry">
            <Array as="points">
              <mxPoint x="460" y="290" />
              <mxPoint x="460" y="290" />
            </Array>
          </mxGeometry>
        </mxCell>
        <mxCell id="4UHlv2itUR0P1ygIJtA1-42" value="新增流水号" style="edgeLabel;html=1;align=center;verticalAlign=middle;resizable=0;points=[];" vertex="1" connectable="0" parent="4UHlv2itUR0P1ygIJtA1-39">
          <mxGeometry x="0.0952" y="-3" relative="1" as="geometry">
            <mxPoint as="offset" />
          </mxGeometry>
        </mxCell>
        <mxCell id="4UHlv2itUR0P1ygIJtA1-43" style="edgeStyle=orthogonalEdgeStyle;rounded=0;orthogonalLoop=1;jettySize=auto;html=1;" edge="1" parent="1" source="4UHlv2itUR0P1ygIJtA1-38" target="4UHlv2itUR0P1ygIJtA1-44">
          <mxGeometry relative="1" as="geometry">
            <mxPoint x="690" y="300" as="targetPoint" />
          </mxGeometry>
        </mxCell>
        <mxCell id="4UHlv2itUR0P1ygIJtA1-47" value="卷宗流程到制证" style="edgeLabel;html=1;align=center;verticalAlign=middle;resizable=0;points=[];" vertex="1" connectable="0" parent="4UHlv2itUR0P1ygIJtA1-43">
          <mxGeometry x="0.3105" relative="1" as="geometry">
            <mxPoint as="offset" />
          </mxGeometry>
        </mxCell>
        <mxCell id="4UHlv2itUR0P1ygIJtA1-45" style="edgeStyle=orthogonalEdgeStyle;rounded=0;orthogonalLoop=1;jettySize=auto;html=1;entryX=1;entryY=0.41;entryDx=0;entryDy=0;entryPerimeter=0;" edge="1" parent="1" source="4UHlv2itUR0P1ygIJtA1-38" target="Ub8pnknUyiXxGgldzIyQ-12">
          <mxGeometry relative="1" as="geometry">
            <Array as="points">
              <mxPoint x="600" y="260" />
              <mxPoint x="600" y="193" />
            </Array>
          </mxGeometry>
        </mxCell>
        <mxCell id="4UHlv2itUR0P1ygIJtA1-46" value="同步流水号" style="edgeLabel;html=1;align=center;verticalAlign=middle;resizable=0;points=[];" vertex="1" connectable="0" parent="4UHlv2itUR0P1ygIJtA1-45">
          <mxGeometry x="0.2912" y="3" relative="1" as="geometry">
            <mxPoint as="offset" />
          </mxGeometry>
        </mxCell>
        <mxCell id="Ub8pnknUyiXxGgldzIyQ-20" value="新增一条数据 &lt;br&gt;type =4" style="whiteSpace=wrap;html=1;" parent="1" vertex="1">
          <mxGeometry x="480" y="250" width="110" height="30" as="geometry" />
        </mxCell>
        <mxCell id="4UHlv2itUR0P1ygIJtA1-56" style="edgeStyle=orthogonalEdgeStyle;rounded=0;orthogonalLoop=1;jettySize=auto;html=1;" edge="1" parent="1" source="4UHlv2itUR0P1ygIJtA1-55" target="4UHlv2itUR0P1ygIJtA1-49">
          <mxGeometry relative="1" as="geometry" />
        </mxCell>
        <mxCell id="4UHlv2itUR0P1ygIJtA1-61" style="edgeStyle=orthogonalEdgeStyle;rounded=0;orthogonalLoop=1;jettySize=auto;html=1;" edge="1" parent="1" source="4UHlv2itUR0P1ygIJtA1-60" target="4UHlv2itUR0P1ygIJtA1-48">
          <mxGeometry relative="1" as="geometry" />
        </mxCell>
        <mxCell id="4UHlv2itUR0P1ygIJtA1-62" value="出证审查" style="text;html=1;align=center;verticalAlign=middle;resizable=0;points=[];autosize=1;strokeColor=none;fillColor=none;fontStyle=1" vertex="1" parent="1">
          <mxGeometry x="-190" y="165" width="60" height="20" as="geometry" />
        </mxCell>
        <mxCell id="4UHlv2itUR0P1ygIJtA1-70" value="27号提出撤回动作 未考虑对流程影响" style="text;html=1;align=center;verticalAlign=middle;resizable=0;points=[];autosize=1;strokeColor=none;fillColor=none;" vertex="1" parent="1">
          <mxGeometry x="440" y="890" width="210" height="20" as="geometry" />
        </mxCell>
        <mxCell id="4UHlv2itUR0P1ygIJtA1-72" style="edgeStyle=orthogonalEdgeStyle;rounded=0;orthogonalLoop=1;jettySize=auto;html=1;" edge="1" parent="1" source="4UHlv2itUR0P1ygIJtA1-5" target="4UHlv2itUR0P1ygIJtA1-23">
          <mxGeometry relative="1" as="geometry" />
        </mxCell>
        <mxCell id="4UHlv2itUR0P1ygIJtA1-74" value="make_notary_check:0" style="text;html=1;align=center;verticalAlign=middle;resizable=0;points=[];autosize=1;strokeColor=none;fillColor=none;" vertex="1" parent="1">
          <mxGeometry x="20" y="70" width="130" height="20" as="geometry" />
        </mxCell>
        <mxCell id="4UHlv2itUR0P1ygIJtA1-75" value="make_notary_check:1" style="text;html=1;align=center;verticalAlign=middle;resizable=0;points=[];autosize=1;strokeColor=none;fillColor=none;" vertex="1" parent="1">
          <mxGeometry x="390" y="70" width="130" height="20" as="geometry" />
        </mxCell>
        <mxCell id="4UHlv2itUR0P1ygIJtA1-76" value="make_notary_check:2" style="text;html=1;align=center;verticalAlign=middle;resizable=0;points=[];autosize=1;strokeColor=none;fillColor=none;" vertex="1" parent="1">
          <mxGeometry x="560" y="70" width="130" height="20" as="geometry" />
        </mxCell>
        <mxCell id="4UHlv2itUR0P1ygIJtA1-77" value="make_notary_check:3" style="text;html=1;align=center;verticalAlign=middle;resizable=0;points=[];autosize=1;strokeColor=none;fillColor=none;" vertex="1" parent="1">
          <mxGeometry x="215" y="70" width="130" height="20" as="geometry" />
        </mxCell>
        <mxCell id="4UHlv2itUR0P1ygIJtA1-78" value="提交出征审查" style="text;html=1;align=center;verticalAlign=middle;resizable=0;points=[];autosize=1;strokeColor=none;fillColor=none;" vertex="1" parent="1">
          <mxGeometry x="40" y="30" width="90" height="20" as="geometry" />
        </mxCell>
        <mxCell id="4UHlv2itUR0P1ygIJtA1-79" value="提交签发" style="text;html=1;align=center;verticalAlign=middle;resizable=0;points=[];autosize=1;strokeColor=none;fillColor=none;" vertex="1" parent="1">
          <mxGeometry x="255" y="30" width="60" height="20" as="geometry" />
        </mxCell>
        <mxCell id="4UHlv2itUR0P1ygIJtA1-80" value="上报审批" style="text;html=1;align=center;verticalAlign=middle;resizable=0;points=[];autosize=1;strokeColor=none;fillColor=none;" vertex="1" parent="1">
          <mxGeometry x="425" y="30" width="60" height="20" as="geometry" />
        </mxCell>
      </root>
    </mxGraphModel>
  </diagram>
</mxfile>
